<svg xmlns="http://www.w3.org/2000/svg" viewBox="0 0 246.95 345.6"><defs><style>.cls-1{fill:#f9fcfe;}</style></defs><g id="Livello_2" data-name="Livello 2"><g id="Layer_1" data-name="Layer 1"><path class="cls-1" d="M147.75,47C137.1,80.29,126,113.64,116.23,147c-4.35,16-10.48,32.55-8.24,49.32,1.1,6.85-13.36-.46-10.72-8.33,5.31-38.89,19-75.43,31.47-112.57,7-21.2,13.65-42.74,18.32-64.48.44-2-.52-4.28-.83-6.44C131.67,10.94,124.35,26.88,115,39.19,97.25,66.87,79.71,94.67,64.35,123.74c-13.71,2.17-10.26-16.88-8.84-25.16,2.81-24.69,6.1-49.67,6.16-74.48l-1.12-.37C43.83,50.18,32.1,80.2,22,109.9c-3.39,13.41-7.22,26.77-8.78,40.54C11.73,156.63,1.67,148.3,0,146.19c10.57-14.87,14.4-33.79,21.91-50.45,10.8-25.15,18.51-51.57,33.36-74.59C59.63,13.48,71.43,18,71.14,26,70,52.43,66.51,78.8,65.36,105.24,90.44,70.12,108.1,30.72,140.08,1.93c4.4-3.56,9.51-2,12.45,3C159.22,18.54,149.91,33.05,147.75,47Z"/><path class="cls-1" d="M119.86,226.31c8.56-20.15,16.36-40.95,27.88-59.45,3.35-6.23,14.59-3.27,14.92,3.44-.06,26.46-3.87,54.12-5.55,80.41l.8.22c16.91-26.66,33.79-53.4,52.51-78.84,7.44-8.59,13.94-19.38,23.91-25.16,10.18-3.27,14.58,12,11.81,19.72-9.86,38.77-22.71,77.38-34.89,115.21-4.07,19.79-14.16,40.25-11.36,60.85.87,6.69-12.81.93-10.84-8.64,4.76-39.46,20.49-76.85,32.39-114.65a463.58,463.58,0,0,0,17.68-64.15c.28-1.27-.53-2.79-.83-4.2-19.73,8-38.1,47.2-51.14,65.22-10.53,17.09-20.34,34.9-30.16,52.26-.65,1.14-2.37,2.53-3.47,2.43-3.82-.34-8.46-7-8-10.72,1.28-10.47,2.51-20.95,3.83-31.68,1.13-19.59,4.85-38.74,4.13-58.2-20.41,23.28-44,89.52-48.54,126.47-1.43,5.74-12.31-2.09-13.19-4.93,6.19-5,7-13.81,10.63-20.9C108.23,256,114,241.29,119.86,226.31Z"/></g></g></svg>