<svg xmlns="http://www.w3.org/2000/svg" viewBox="0 0 554.74 409.95"><defs><style>.cls-1{fill:#f9fcfe;}.cls-2{fill:#f8fbfe;}.cls-3{fill:#f7fbfe;}</style></defs><g id="Livello_2" data-name="Livello 2"><g id="Layer_1" data-name="Layer 1"><path class="cls-1" d="M147.75,47C137.1,80.29,126,113.64,116.23,147c-4.35,16-10.48,32.55-8.24,49.32,1.1,6.85-13.36-.46-10.72-8.33,5.31-38.89,19-75.43,31.47-112.57,7-21.2,13.65-42.74,18.32-64.48.44-2-.52-4.28-.83-6.44C131.67,10.94,124.35,26.88,115,39.19,97.25,66.87,79.71,94.67,64.35,123.74c-13.71,2.17-10.26-16.88-8.84-25.16,2.81-24.69,6.1-49.67,6.16-74.48l-1.12-.37C43.83,50.18,32.1,80.2,22,109.9c-3.39,13.41-7.22,26.77-8.78,40.54C11.73,156.63,1.67,148.3,0,146.19c10.57-14.87,14.4-33.79,21.91-50.45,10.8-25.15,18.51-51.57,33.36-74.59C59.63,13.48,71.43,18,71.14,26,70,52.43,66.51,78.8,65.36,105.24,90.44,70.12,108.1,30.72,140.08,1.93c4.4-3.56,9.51-2,12.45,3C159.22,18.54,149.91,33.05,147.75,47Z"/><path class="cls-2" d="M170.5,112.51c6-7.2,12.07-14.34,17.95-21.64,2.94-5.16,10.09-2.07,10,3.38-3.55,16.8-10.41,33-13.82,49.81-5.05,21.53,27.8-15.37,31.06-19.36C222,114,226.76,101.7,237,93.85c7.33-7.48,16-2.39,24,1.46,10.54-13.9,22-28.91,29.94-44.73,5.24-6.75,16.67-47.17,26.44-40,5.68,3.56-7.16,17.35-9.15,22a134.21,134.21,0,0,0-16.46,32.95C282.43,94.13,252.84,169,266.27,194.6,230.81,191.94,276.46,99.1,280.42,78a1.09,1.09,0,0,0-1-.28c-16,20-30.76,40.4-49.68,57.61-5.34,5.78-10.49-1.65-13.06-6.54A183.76,183.76,0,0,1,190.91,155c-9.35,2.22-16.8-7.82-14.66-16.34,3.42-13.74,8.39-26.82,12.74-40.43-.16-.25-.42-.35-.87-.32-5.33,5.91-10.45,11.72-15.63,17.48-7.49,7.86-13.78,18.48-24.32,22.55-18.54-4.51,1.18-31.84,5.92-41.67,5.75-11.11,22.92-12.45,26.74.7-5.53-.65-7.4-5.39-12.37-.45-9.1,7.66-21.36,23.12-19.69,35.59,8.5-2.95,15.35-13.08,21.73-19.59m85.38-11.13,2.4-3c-10.5-10.23-32.56,22.84-33,32.58l1.25.67C238.49,124,246.53,112.34,255.88,101.38Z"/><path class="cls-2" d="M365.93,76.23c-9.6,37.46-32.66,80.27-21.93,119.16-15.74-3.78-15.2-22.61-11.95-35.23,6.83-27.93,17.53-54.72,25.87-82.13-16.57,18.57-31,39.73-49.64,56.74-4.24,4.21-8,3.09-11.35-1.94-5.63-9.16,2.91-19.11,7.46-26.91,5.95-7.34,12.27-18.18,23.37-15.6,2.31,1.74,6,.22,8.14,3.52,2,1.73,3.21,1.46,4.47-.44,3.27-4.79,6.56-8.7,10.19-13.43,17.84-20.24,23.6-47.1,38.68-68.85,1.75-2.14,4-2,6.14-.53,4.85,3.9-3.43,11.83-5.28,15.93-11,15.14-18.56,32-24.17,49.71M315.35,122.8,336.7,98.44c-10.69-10.83-33.41,23.43-33.57,33.24C308.64,129.93,311.66,126.28,315.35,122.8Z"/><path class="cls-3" d="M394.49,88.3c6.44,2.43,12.08,6,7,12.93-6.43,13.52-16.52,27.65-15.12,43.17,20.37-5.57,39-36.26,54.45-50.35l1.06.43c-3.69,11.23-42.37,54-54.88,52.86-12.38,1.12-5.24-23.64-3.15-30.16,1.45-5.25,3.39-10.36,4.92-15.58C389.56,96.79,390.53,91.79,394.49,88.3Z"/><path class="cls-3" d="M410.35,66.57c-1.6,3.83-6.2,8.7-7.67,2.39,1.45-5.12,1.7-11.67,4.58-16C416.55,55.45,415.3,59.77,410.35,66.57Z"/><path class="cls-3" d="M446.24,233.71c7.35-10,12.74-38,29.25-25.13,2.07,1.67,1.79,2.51-1.14,3.62-26,9.18-55.42,118.25-59.92,147.17,9.22-10.43,43.74-79.12,53.76-41.37-.44,7.79-8.57,24.94-4.69,30.24,11.78,1.82,26.54-21.95,35.32-29.46,5.14-5.59,2-15.24,8.61-19.75,6.26,2.67,12.63,5.81,7,13.18-4.5,9.7-8.93,18.93-12.91,28.37-14.42,39.65,34.06-14.05,40.78-22.36,3.91-5.36,6.82-9.72,12.11-14.3.21,1.93.3,2.8.34,3.92-15.43,17.47-29,38.2-49.9,49.5-19.9,7.26-9.26-21.3-7.69-31.15-10.29,8.48-28.93,40.21-41.93,21-2.93-12.07,5.4-22.94,3-34.85-17.7,8.42-30,36-39.43,53-2.24,3.07-5.56,17.32-9.31,15.36-8.63-1-4.39-10.31-4.41-16.59,1.94-16.85,7.07-31.68,11-47.94-12.25,8.8-61.21,72.94-66.3,33.15.13-8.09,3.21-15.91,3.82-24-9.69,11-51.91,57.28-47.47,16.14,2.91-10.92,6.84-21.68,9.39-32.65-.12-2.58,2.54-9.44,4.19-9.21,4.29,1.18,12.43,4.43,9,10.29-5.07,10.25-10,20.58-14.61,31-16.27,45.2,48.41-31,54.43-38.3,6.74-7.78,21.16-4.12,23.54,6-6.46-3.24-10.69-6.33-16.15,0-5.86,5.81-9.48,13-12.6,20.51-4.85,13.17-15.33,43.71,9.32,22.71,16.48-13.75,32.94-28.39,46.28-45.08C426.74,281.86,436.31,258,446.24,233.71Z"/><path class="cls-1" d="M189.89,290.66c8.55-20.15,16.36-41,27.87-59.45,3.36-6.23,14.6-3.27,14.92,3.44-.06,26.46-3.86,54.12-5.54,80.41l.79.21c16.92-26.66,33.79-53.39,52.51-78.83,7.45-8.59,13.95-19.38,23.92-25.16,10.18-3.27,14.57,12,11.81,19.72-9.86,38.76-22.72,77.38-34.9,115.21-4.07,19.79-14.15,40.25-11.36,60.85.87,6.69-12.8.93-10.83-8.64,4.76-39.46,20.49-76.85,32.38-114.65a463.58,463.58,0,0,0,17.68-64.15c.29-1.27-.52-2.79-.82-4.2-19.73,8-38.1,47.2-51.15,65.21-10.53,17.1-20.33,34.9-30.15,52.27-.66,1.14-2.37,2.53-3.47,2.43-3.83-.34-8.46-7-8-10.72,1.29-10.47,2.52-20.95,3.84-31.68,1.13-19.59,4.85-38.74,4.13-58.2C203.1,258,179.51,324.25,175,361.2c-1.44,5.74-12.31-2.09-13.19-4.94,6.18-5,7-13.8,10.63-20.89C178.25,320.39,184.07,305.64,189.89,290.66Z"/><path class="cls-3" d="M330.68,283.07a17.15,17.15,0,0,1-2.39-2.94c1.91-3.84,2-20.52,8.28-15.81,4.37,2.31,4.93,4.24,2.4,8.48C336.31,276.39,335.35,281.56,330.68,283.07Z"/><path class="cls-3" d="M54.76,267.85c4.33-4.63,8.24-9.53,13.06-13.26,6.85-5.31,22.44-3.92,18,8-1.58,5.11-7.54,10.75-12.58,11.53-3.11.22-6.4-2-10.05-3.38-6,7.52-19.28,44.11,1.37,39.33,21.56-10.32,36.23-30.27,52.83-46.87,4.42,4-1.91,6.83-4.14,9.86a276.63,276.63,0,0,1-41.73,37.46c-9.19,7.66-24.59,2.3-25.75-9.91-1.57-11.79,3.1-22.71,9-32.79m14.83,2.62c6.68-1.63,13-7.36,12-14.64-7.64-.36-12.34,6.51-16.63,12.32C66.5,269,67.8,269.7,69.59,270.47Z"/><path class="cls-3" d="M526.92,271.67c-3,4.05-4.07,9.66-9.16,11.19-2.33-3-1.83-5.64-.74-9.22,1.14-3.28,1.22-7.94,3.75-10C524.07,265.17,530.39,267,526.92,271.67Z"/></g></g></svg>